Coordinates
version=1
nRows=17
nColumns=38
inDegrees=no

Units are S.I. units (second, meters, Newtons, ...)
If the header above contains a line with 'inDegrees', this indicates whether rotational values are in degrees (yes) or radians (no).

endheader
time	pelvis_tilt	pelvis_list	pelvis_rotation	pelvis_tx	pelvis_ty	pelvis_tz	hip_flexion_r	hip_adduction_r	hip_rotation_r	knee_angle_r	ankle_angle_r	subtalar_angle_r	mtp_angle_r	hip_flexion_l	hip_adduction_l	hip_rotation_l	knee_angle_l	ankle_angle_l	subtalar_angle_l	mtp_angle_l	lumbar_extension	lumbar_bending	lumbar_rotation	arm_flex_r	arm_add_r	arm_rot_r	elbow_flex_r	pro_sup_r	wrist_flex_r	wrist_dev_r	arm_flex_l	arm_add_l	arm_rot_l	elbow_flex_l	pro_sup_l	wrist_flex_l	wrist_dev_l
170	0.961265	1.48124	0.863047	0.913616	-0.952189	1.06033	0.253326	-0.00158555	-0.0874979	0.220521	-0.448655	0	0	-0.0490164	-0.0535774	-0.177218	0.214955	-0.202581	0	0	-0.13978	-0.0184713	0.104017	-0.243116	-0.505159	-0.0901724	1.88351	1.5708	0	0	0.489253	-0.257256	0.775528	1.47328	1.5708	0	0
170.01	0.967552	1.48093	0.855956	0.914614	-0.949822	1.06034	0.25213	0.00122709	-0.0866468	0.222577	-0.44701	0	0	-0.04976	-0.0559089	-0.179093	0.218528	-0.201192	0	0	-0.140347	-0.0183492	0.104399	-0.239307	-0.505411	-0.0876675	1.88229	1.5708	0	0	0.488757	-0.255079	0.769609	1.4715	1.5708	0	0
170.02	0.977505	1.48027	0.84484	0.915745	-0.947377	1.06041	0.251009	0.00497207	-0.084927	0.224738	-0.443825	0	0	-0.0565215	-0.0570787	-0.165694	0.208829	-0.203975	0	0	-0.139413	-0.01719	0.104765	-0.234146	-0.506088	-0.0831453	1.87917	1.5708	0	0	0.488422	-0.259315	0.771394	1.47324	1.5708	0	0
170.03	1.41968	1.50371	0.450647	0.912926	-0.951566	1.06527	0.199328	-0.00202427	-0.146665	0.210733	-0.452462	0	0	-0.0758882	-0.0620909	-0.109279	0.2384	-0.193098	0	0	-0.208737	-0.0123462	0.0613781	-0.206418	-0.504795	-0.0859824	1.88604	1.5708	0	0	0.522558	-0.264846	0.77612	1.48253	1.5708	0	0
170.04	1.01148	1.48166	0.808428	0.917758	-0.94231	1.06085	0.243031	0.0111871	-0.0829666	0.221877	-0.446164	0	0	-0.0616762	-0.0606537	-0.173118	0.214239	-0.20018	0	0	-0.141659	-0.0161091	0.107599	-0.227079	-0.507005	-0.0782079	1.87564	1.5708	0	0	0.489837	-0.261792	0.772593	1.47257	1.5708	0	0
170.05	1.01941	1.48067	0.798577	0.918985	-0.939663	1.0607	0.242008	0.0149243	-0.0806665	0.224273	-0.442271	0	0	-0.0591909	-0.0666589	-0.18323	0.227976	-0.199722	0	0	-0.140575	-0.0152546	0.110026	-0.224701	-0.507253	-0.076128	1.87437	1.5708	0	0	0.489717	-0.26049	0.769844	1.47056	1.5708	0	0
170.06	1.02033	1.48043	0.796107	0.919976	-0.936849	1.06069	0.239829	0.0170863	-0.0792312	0.224824	-0.439777	0	0	-0.0593208	-0.0679126	-0.190728	0.232742	-0.195401	0	0	-0.139134	-0.0149726	0.111786	-0.222431	-0.507492	-0.0739103	1.87266	1.5708	0	0	0.488973	-0.260237	0.768187	1.4687	1.5708	0	0
170.07	1.47336	1.50096	0.393735	0.91674	-0.940756	1.06536	0.186819	0.0106459	-0.14438	0.207485	-0.448432	0	0	-0.083578	-0.0725094	-0.115588	0.249726	-0.186698	0	0	-0.207094	-0.00893006	0.0659166	-0.195194	-0.506452	-0.0765983	1.87925	1.5708	0	0	0.521379	-0.263998	0.769742	1.47662	1.5708	0	0
170.08	1.49795	1.50019	0.369572	0.917562	-0.937906	1.06542	0.181281	0.0140235	-0.145071	0.203334	-0.450838	0	0	-0.0877254	-0.0759285	-0.111059	0.251111	-0.189914	0	0	-0.207321	-0.0077228	0.0663881	-0.192407	-0.5067	-0.0748645	1.8774	1.5708	0	0	0.521546	-0.265159	0.769908	1.47613	1.5708	0	0
170.09	1.24942	1.51258	0.614329	0.918801	-0.933974	1.06225	0.225201	0.00559116	0.00971614	0.343177	-0.299712	0	0	-0.0878842	-0.0534627	-0.104986	0.237585	-0.185793	0	0	-0.190519	-0.0302692	0.0689067	-0.198108	-0.501491	-0.0745239	1.87816	1.5708	0	0	0.520082	-0.270858	0.773608	1.47924	1.5708	0	0
170.1	1.42265	1.50842	0.410855	0.921252	-0.932168	1.06287	0.222511	0.0225365	0.0507227	0.35112	-0.298078	0	0	-0.0978805	-0.0637083	-0.15968	0.249708	-0.180389	0	0	-0.202734	-0.0192116	0.0986623	-0.18989	-0.517784	-0.0741803	1.88369	1.5708	0	0	0.520715	-0.260658	0.765018	1.4768	1.5708	0	0
170.11	0.835561	1.48435	0.972688	0.925607	-0.921497	1.05725	0.277389	0.0229872	0.088724	0.393255	-0.272588	0	0	-0.0687379	-0.0557368	-0.189119	0.229062	-0.187267	0	0	-0.118677	-0.0337034	0.121273	-0.216701	-0.50369	-0.0632916	1.86898	1.5708	0	0	0.487176	-0.271109	0.769467	1.47031	1.5708	0	0
170.12	0.871688	1.48432	0.937951	0.926169	-0.918189	1.0575	0.268606	0.0271902	0.0751107	0.373228	-0.268166	0	0	-0.067112	-0.0632702	-0.203406	0.245748	-0.182897	0	0	-0.118422	-0.029776	0.120472	-0.214126	-0.505082	-0.0600962	1.86725	1.5708	0	0	0.48613	-0.271522	0.768805	1.46837	1.5708	0	0
170.13	1.06988	1.49449	0.704641	0.929639	-0.918074	1.05954	0.255465	0.0433774	0.127529	0.381169	-0.270113	0	0	-0.0938395	-0.0661729	-0.246002	0.243675	-0.181627	0	0	-0.150347	-0.0227293	0.154146	-0.19664	-0.523004	-0.0600504	1.87365	1.5708	0	0	0.495824	-0.261259	0.76004	1.46763	1.5708	0	0
170.14	0.904306	1.48394	0.903746	0.928152	-0.911953	1.05768	0.259091	0.0342938	0.07916	0.368139	-0.264876	0	0	-0.0725086	-0.0692278	-0.205767	0.250528	-0.179907	0	0	-0.117113	-0.0253365	0.12222	-0.206707	-0.506975	-0.0532513	1.86387	1.5708	0	0	0.485283	-0.273885	0.766938	1.46616	1.5708	0	0
170.15	0.909351	1.48338	0.897363	0.929237	-0.908803	1.05761	0.256466	0.0370157	0.0820515	0.368554	-0.262389	0	0	-0.0743956	-0.0715457	-0.206629	0.252999	-0.17875	0	0	-0.114855	-0.0242021	0.122283	-0.202195	-0.507827	-0.0475275	1.86149	1.5708	0	0	0.483784	-0.276101	0.764938	1.46548	1.5708	0	0
170.16	1.525	1.49903	0.302947	0.927004	-0.913806	1.06298	0.203394	0.0462921	0.0588048	0.356652	-0.272953	0	0	-0.111644	-0.0860633	-0.171526	0.268971	-0.167084	0	0	-0.196798	-0.00308806	0.102956	-0.165576	-0.527034	-0.0482003	1.87343	1.5708	0	0	0.515576	-0.267536	0.755824	1.47025	1.5708	0	0
